<svg width="229" height="229" viewBox="0 0 229 229" fill="none" xmlns="http://www.w3.org/2000/svg">
<path fill-rule="evenodd" clip-rule="evenodd" d="M39.1498 0H189.85C211.472 0 229 17.528 229 39.1498V189.85C229 211.472 211.472 229 189.85 229H39.1498C17.528 229 0 211.472 0 189.85V39.1498C0 17.528 17.528 0 39.1498 0ZM77.5871 60.5935H111.855H111.864L150.089 166.501H118.486L113.375 150.682H74.0055L68.8942 166.501H38.2266L77.5871 60.5935ZM182.378 83.1179H154V166.501H182.378V83.1179ZM168.193 81.2399C177.096 81.3132 183.389 75.8172 183.307 68.0404C183.389 60.2635 177.106 54.7675 168.193 54.8408C159.289 54.7675 152.996 60.2635 153.079 68.0404C152.996 75.8172 159.28 81.3132 168.193 81.2399Z" fill="#330000"/>
<path d="M93.6812 124.256H82.5335L93.6812 89.7315L104.829 124.256H93.6812Z" fill="#330000"/>
<path fill-rule="evenodd" clip-rule="evenodd" d="M111.855 60.5935H77.5871L38.2266 166.501H68.8942L74.0055 150.682H113.375L118.486 166.501H150.089L111.864 60.5935H111.855ZM82.5335 124.256H93.6812H104.829L93.6812 89.7315L82.5335 124.256Z" fill="#FF9A00"/>
<path d="M154 83.1179H182.378V166.501H154V83.1179Z" fill="#FF9A00"/>
<path d="M183.307 68.0404C183.389 75.8172 177.096 81.3132 168.193 81.2399C159.28 81.3132 152.996 75.8172 153.079 68.0404C152.996 60.2635 159.289 54.7675 168.193 54.8408C177.106 54.7675 183.389 60.2635 183.307 68.0404Z" fill="#FF9A00"/>
</svg>
