{
  "accessors": [
    {
      "bufferView": 2,
      "componentType": 5126,
      "count": 23,
      "max": [
        2.7795639038085938,
        1.0918159484863281,
        8.729822158813477
      ],
      "min": [
        -1.8721599578857422,
        -2.644416093826294,
        2.936569929122925
      ],
      "type": "VEC3"
    },
    {
      "bufferView": 2,
      "byteOffset": 276,
      "componentType": 5126,
      "count": 23,
      "max": [
        0.9873521327972412,
        1.0,
        0.20919056236743927
      ],
      "min": [
        -0.9999200105667114,
        -1.0,
        -0.010600212030112743
      ],
      "type": "VEC3"
    },
    {
      "bufferView": 1,
      "componentType": 5126,
      "count": 23,
      "max": [
        0.2909820079803467,
        0.5332109928131104
      ],
      "min": [
        0.003829000052064657,
        0.2645550072193146
      ],
      "type": "VEC2"
    },
    {
      "bufferView": 0,
      "componentType": 5125,
      "count": 39,
      "type": "SCALAR"
    },
    {
      "bufferView": 2,
      "byteOffset": 552,
      "componentType": 5126,
      "count": 133,
      "max": [
        2.1690280437469482,
        1.0918159484863281,
        9.364119529724121
      ],
      "min": [
        -1.833367943763733,
        -2.7277719974517822,
        2.936569929122925
      ],
      "type": "VEC3"
    },
    {
      "bufferView": 2,
      "byteOffset": 2148,
      "componentType": 5126,
      "count": 133,
      "max": [
        0.9738767743110657,
        0.8880318999290466,
        0.9736793041229248
      ],
      "min": [
        -0.975901186466217,
        -0.9798702001571655,
        -0.9736793041229248
      ],
      "type": "VEC3"
    },
    {
      "bufferView": 1,
      "byteOffset": 184,
      "componentType": 5126,
      "count": 133,
      "max": [
        0.9324160218238831,
        0.6828140020370483
      ],
      "min": [
        0.0021299999207258224,
        0.0021279999054968357
      ],
      "type": "VEC2"
    },
    {
      "bufferView": 0,
      "byteOffset": 156,
      "componentType": 5125,
      "count": 393,
      "type": "SCALAR"
    },
    {
      "bufferView": 2,
      "byteOffset": 3744,
      "componentType": 5126,
      "count": 18637,
      "max": [
        10.916614532470703,
        6.073454856872559,
        13.261488914489746
      ],
      "min": [
        -14.404099464416504,
        -4.843839168548584,
        -0.9970939755439758
      ],
      "type": "VEC3"
    },
    {
      "bufferView": 2,
      "byteOffset": 227388,
      "componentType": 5126,
      "count": 18637,
      "max": [
        1.0,
        1.0,
        1.0
      ],
      "min": [
        -1.0,
        -1.0,
        -1.0
      ],
      "type": "VEC3"
    },
    {
      "bufferView": 1,
      "byteOffset": 1248,
      "componentType": 5126,
      "count": 18637,
      "max": [
        0.9967229962348938,
        0.9978709816932678
      ],
      "min": [
        0.0021279999054968357,
        0.0021279999054968357
      ],
      "type": "VEC2"
    },
    {
      "bufferView": 0,
      "byteOffset": 1728,
      "componentType": 5125,
      "count": 30660,
      "type": "SCALAR"
    },
    {
      "bufferView": 2,
      "byteOffset": 451032,
      "componentType": 5126,
      "count": 602,
      "max": [
        8.1138277053833,
        4.387510776519775,
        12.796656608581543
      ],
      "min": [
        -14.342684745788574,
        -0.2464659959077835,
        0.18455800414085388
      ],
      "type": "VEC3"
    },
    {
      "bufferView": 2,
      "byteOffset": 458256,
      "componentType": 5126,
      "count": 602,
      "max": [
        0.9998621940612793,
        0.9943232536315918,
        1.0
      ],
      "min": [
        -0.9998621940612793,
        -0.9943232536315918,
        -0.9997959733009338
      ],
      "type": "VEC3"
    },
    {
      "bufferView": 1,
      "byteOffset": 150344,
      "componentType": 5126,
      "count": 602,
      "max": [
        0.9522470235824585,
        0.9763860106468201
      ],
      "min": [
        0.030189000070095062,
        0.002128999913111329
      ],
      "type": "VEC2"
    },
    {
      "bufferView": 0,
      "byteOffset": 124368,
      "componentType": 5125,
      "count": 1752,
      "type": "SCALAR"
    }
  ],
  "asset": {
    "extras": {
      "author": "bluefer.studio (https://sketchfab.com/bluefer.studio)",
      "license": "CC-BY-4.0 (http://creativecommons.org/licenses/by/4.0/)",
      "source": "https://sketchfab.com/3d-models/simple-cartoon-diesel-excavator-a2a54bbf419644559b6875fa0c4348a5",
      "title": "Simple cartoon diesel excavator"
    },
    "generator": "Sketchfab-13.35.0",
    "version": "2.0"
  },
  "bufferViews": [
    {
      "buffer": 0,
      "byteLength": 131376,
      "name": "floatBufferViews",
      "target": 34963
    },
    {
      "buffer": 0,
      "byteLength": 155160,
      "byteOffset": 131376,
      "byteStride": 8,
      "name": "floatBufferViews",
      "target": 34962
    },
    {
      "buffer": 0,
      "byteLength": 465480,
      "byteOffset": 286536,
      "byteStride": 12,
      "name": "floatBufferViews",
      "target": 34962
    }
  ],
  "buffers": [
    {
      "byteLength": 752016,
      "uri": "scene.bin"
    }
  ],
  "materials": [
    {
      "doubleSided": true,
      "name": "Material.001",
      "pbrMetallicRoughness": {
        "baseColorFactor": [
          0.8,
          0.8,
          0.8,
          1.0
        ],
        "metallicFactor": 0.0
      }
    },
    {
      "alphaMode": "BLEND",
      "doubleSided": true,
      "name": "Material.002",
      "pbrMetallicRoughness": {
        "baseColorFactor": [
          0.8,
          0.8,
          0.8,
          0.5
        ],
        "metallicFactor": 0.0,
        "roughnessFactor": 0.53990244987311
      }
    }
  ],
  "meshes": [
    {
      "name": "Object_0",
      "primitives": [
        {
          "attributes": {
            "NORMAL": 1,
            "POSITION": 0,
            "TEXCOORD_0": 2
          },
          "indices": 3,
          "material": 1,
          "mode": 4
        }
      ]
    },
    {
      "name": "Object_1",
      "primitives": [
        {
          "attributes": {
            "NORMAL": 5,
            "POSITION": 4,
            "TEXCOORD_0": 6
          },
          "indices": 7,
          "material": 0,
          "mode": 4
        }
      ]
    },
    {
      "name": "Object_2",
      "primitives": [
        {
          "attributes": {
            "NORMAL": 9,
            "POSITION": 8,
            "TEXCOORD_0": 10
          },
          "indices": 11,
          "material": 0,
          "mode": 4
        }
      ]
    },
    {
      "name": "Object_3",
      "primitives": [
        {
          "attributes": {
            "NORMAL": 13,
            "POSITION": 12,
            "TEXCOORD_0": 14
          },
          "indices": 15,
          "material": 0,
          "mode": 4
        }
      ]
    }
  ],
  "nodes": [
    {
      "children": [
        1
      ],
      "matrix": [
        1.0,
        0.0,
        0.0,
        0.0,
        0.0,
        2.220446049250313e-16,
        -1.0,
        0.0,
        0.0,
        1.0,
        2.220446049250313e-16,
        0.0,
        0.0,
        0.0,
        0.0,
        1.0
      ],
      "name": "Sketchfab_model"
    },
    {
      "children": [
        2,
        3,
        4,
        5
      ],
      "name": "digger.obj.cleaner.materialmerger.gles"
    },
    {
      "mesh": 0,
      "name": "Object_2"
    },
    {
      "mesh": 1,
      "name": "Object_3"
    },
    {
      "mesh": 2,
      "name": "Object_4"
    },
    {
      "mesh": 3,
      "name": "Object_5"
    }
  ],
  "scene": 0,
  "scenes": [
    {
      "name": "Sketchfab_Scene",
      "nodes": [
        0
      ]
    }
  ]
}
